<?xml version="1.0" encoding="iso-8859-1"?>
<!-- Generator: Adobe Illustrator 19.0.0, SVG Export Plug-In . SVG Version: 6.00 Build 0)  -->
<svg version="1.1" id="Capa_1" xmlns="http://www.w3.org/2000/svg" xmlns:xlink="http://www.w3.org/1999/xlink" x="0px" y="0px"
	 viewBox="0 0 512 512" fill="#404040" style="enable-background:new 0 0 512 512;" xml:space="preserve">
<g>
	<g>
		<path d="M496.63,206.745l-105.633-91.548v156.559h0.001l110.795-59.408C500.199,210.381,498.564,208.439,496.63,206.745z"/>
	</g>
</g>
<g>
	<g>
		<path d="M15.354,206.76c-1.928,1.688-3.558,3.628-5.149,5.589l110.795,59.408v-156.56L15.354,206.76z"/>
	</g>
</g>
<g>
	<g>
		<path d="M345.999,92.006H166.001c-8.276,0-15,6.724-15,15c0,165.216,0,81.472,0,180.982L256,344.802l104.999-56.813
			c0-99.145,0-16.096,0-180.982C360.999,98.73,354.275,92.006,345.999,92.006z M256,197.005c24.814,0,44.999,20.186,44.999,44.999
			c0,18.12-10.781,34.395-27.466,41.454c-0.829,0.352-1.694,0.489-2.534,0.787v17.758c0,8.291-6.709,15-15,15s-15-6.709-15-15
			v-17.717c-7.784-2.62-15.331-7.015-22.104-13.572c-5.947-5.757-6.094-15.249-0.322-21.211c5.742-5.962,15.264-6.079,21.211-0.322
			c7.28,7.031,15.352,9.463,22.046,6.65c5.566-2.358,9.17-7.778,9.17-13.828c0-8.276-6.724-15-15-15
			c-24.814,0-44.999-20.186-44.999-44.999c0-18.853,11.895-35.845,29.604-42.289c0.13-0.048,0.266-0.026,0.396-0.071v-17.639
			c0-8.291,6.709-15,15-15c8.291,0,15,6.709,15,15v17.455c9.891,3.333,19.334,9.948,27.437,19.605
			c5.332,6.343,4.512,15.806-1.846,21.123c-6.313,5.347-15.791,4.512-21.123-1.846c-7.925-9.434-16.934-13.228-24.595-10.444
			c-5.903,2.153-9.873,7.822-9.873,14.106C241,190.282,247.723,197.005,256,197.005z"/>
	</g>
</g>
<g>
	<g>
		<path d="M286.582,362.004L508.82,483.327c1.989-5.076,3.177-10.554,3.177-16.326V240.807L286.582,362.004z"/>
	</g>
</g>
<g>
	<g>
		<path d="M256,379.207L23.552,506.311C29.959,509.823,37.195,512,45.003,512h421.994c7.808,0,15.044-2.177,21.451-5.689
			L256,379.207z"/>
	</g>
</g>
<g>
	<g>
		<path d="M0.004,240.807v226.195c0,5.771,1.188,11.25,3.177,16.326l222.237-121.323L0.004,240.807z"/>
	</g>
</g>
<g>
	<g>
		<path d="M265.873,3.713c-5.655-4.951-14.092-4.951-19.746,0l-64.333,58.293h148.412L265.873,3.713z"/>
	</g>
</g>
<g>
</g>
<g>
</g>
<g>
</g>
<g>
</g>
<g>
</g>
<g>
</g>
<g>
</g>
<g>
</g>
<g>
</g>
<g>
</g>
<g>
</g>
<g>
</g>
<g>
</g>
<g>
</g>
<g>
</g>
</svg>
